  0
SECTION
  2
HEADER
  9
$ACADVER
  1
AC1006
  9
$EXTMIN
 10
0.000000
 20
0.000000
 30
0.000000
  9
$EXTMAX
 10
416.000000
 20
416.000000
 30
0.000000
  0
ENDSEC
  0
SECTION
  2
ENTITIES
  0
POLYLINE
  8
0
 66
1
 70
1
  0
VERTEX
  8
0
 10
192.817852
 20
283.651138
 42
0.020134
  0
VERTEX
  8
0
 10
191.179845
 20
282.440474
 42
0.010196
  0
VERTEX
  8
0
 10
189.213019
 20
280.793405
 42
0.010111
  0
VERTEX
  8
0
 10
187.248697
 20
279.007855
 42
0.014845
  0
VERTEX
  8
0
 10
185.602200
 20
277.353862
 42
0.049886
  0
VERTEX
  8
0
 10
181.949801
 20
272.586571
 42
0.021666
  0
VERTEX
  8
0
 10
178.042649
 20
265.613536
 42
0.021337
  0
VERTEX
  8
0
 10
174.803331
 20
258.451222
 42
0.061270
  0
VERTEX
  8
0
 10
173.404447
 20
253.186078
 42
-0.024640
  0
VERTEX
  8
0
 10
172.871506
 20
250.362819
 42
-0.108318
  0
VERTEX
  8
0
 10
172.135944
 20
248.846433
 42
-0.097144
  0
VERTEX
  8
0
 10
170.793749
 20
247.693514
 42
-0.017783
  0
VERTEX
  8
0
 10
167.878483
 20
246.174157
 42
0.022410
  0
VERTEX
  8
0
 10
164.986469
 20
244.632732
 42
0.075021
  0
VERTEX
  8
0
 10
163.326173
 20
243.278356
 42
0.340143
  0
VERTEX
  8
0
 10
163.259126
 20
242.452770
 42
0.254303
  0
VERTEX
  8
0
 10
164.091776
 20
242.000000
 42
-0.586703
  0
VERTEX
  8
0
 10
164.240998
 20
241.732994
 42
-0.028392
  0
VERTEX
  8
0
 10
163.514009
 20
240.689083
 42
-0.022469
  0
VERTEX
  8
0
 10
162.277708
 20
239.250771
 42
-0.011178
  0
VERTEX
  8
0
 10
160.591776
 20
237.537304
 42
0.021234
  0
VERTEX
  8
0
 10
157.830714
 20
234.615922
 42
0.069130
  0
VERTEX
  8
0
 10
156.381962
 20
232.388617
 42
0.140364
  0
VERTEX
  8
0
 10
156.117969
 20
230.750132
 42
0.228366
  0
VERTEX
  8
0
 10
156.861383
 20
229.585670
 42
-0.238615
  0
VERTEX
  8
0
 10
157.148371
 20
229.116266
 42
-0.024812
  0
VERTEX
  8
0
 10
157.189240
 20
227.784026
 42
-0.026409
  0
VERTEX
  8
0
 10
157.067746
 20
226.093700
 42
-0.017664
  0
VERTEX
  8
0
 10
156.758928
 20
224.178662
 42
0.056207
  0
VERTEX
  8
0
 10
156.353256
 20
219.297021
 42
0.040103
  0
VERTEX
  8
0
 10
156.953387
 20
213.840697
 42
0.037737
  0
VERTEX
  8
0
 10
158.489705
 20
208.182939
 42
0.035435
  0
VERTEX
  8
0
 10
160.884203
 20
202.695101
 42
-0.009951
  0
VERTEX
  8
0
 10
162.486251
 20
199.480716
 42
-0.074385
  0
VERTEX
  8
0
 10
162.978673
 20
197.854170
 42
-0.120741
  0
VERTEX
  8
0
 10
162.849806
 20
196.499535
 42
-0.043712
  0
VERTEX
  8
0
 10
162.051908
 20
194.724898
 42
0.017787
  0
VERTEX
  8
0
 10
161.272526
 20
193.206887
 42
0.096290
  0
VERTEX
  8
0
 10
161.047330
 20
192.312913
 42
0.174470
  0
VERTEX
  8
0
 10
161.239488
 20
191.670578
 42
0.094030
  0
VERTEX
  8
0
 10
161.853245
 20
191.102072
 42
-0.079889
  0
VERTEX
  8
0
 10
162.467104
 20
190.564683
 42
-0.162665
  0
VERTEX
  8
0
 10
162.696105
 20
189.973881
 42
-0.109155
  0
VERTEX
  8
0
 10
162.562491
 20
189.196324
 42
-0.025949
  0
VERTEX
  8
0
 10
162.000000
 20
188.000000
 42
0.028666
  0
VERTEX
  8
0
 10
161.496887
 20
186.914699
 42
0.084562
  0
VERTEX
  8
0
 10
161.327630
 20
186.112907
 42
0.133654
  0
VERTEX
  8
0
 10
161.464689
 20
185.517930
 42
0.132028
  0
VERTEX
  8
0
 10
161.884774
 20
185.071214
 42
-0.159906
  0
VERTEX
  8
0
 10
162.308730
 20
184.567972
 42
-0.103594
  0
VERTEX
  8
0
 10
162.443561
 20
183.812089
 42
-0.062189
  0
VERTEX
  8
0
 10
162.275137
 20
182.728166
 42
-0.020642
  0
VERTEX
  8
0
 10
161.768819
 20
181.198487
 42
0.101373
  0
VERTEX
  8
0
 10
161.219381
 20
177.769178
 42
0.066551
  0
VERTEX
  8
0
 10
161.922383
 20
173.818326
 42
0.069231
  0
VERTEX
  8
0
 10
163.571318
 20
170.380595
 42
0.145701
  0
VERTEX
  8
0
 10
165.822496
 20
168.500000
 42
-0.104460
  0
VERTEX
  8
0
 10
167.137988
 20
167.571254
 42
-0.151474
  0
VERTEX
  8
0
 10
167.748591
 20
166.298190
 42
-0.049982
  0
VERTEX
  8
0
 10
167.858431
 20
163.946744
 42
-0.003548
  0
VERTEX
  8
0
 10
167.462565
 20
157.389667
 42
0.007702
  0
VERTEX
  8
0
 10
167.210686
 20
152.549373
 42
0.020136
  0
VERTEX
  8
0
 10
167.223501
 20
149.067257
 42
0.027433
  0
VERTEX
  8
0
 10
167.473677
 20
146.543342
 42
0.080775
  0
VERTEX
  8
0
 10
168.012255
 20
144.889667
 42
0.047083
  0
VERTEX
  8
0
 10
169.894591
 20
141.953914
 42
0.042085
  0
VERTEX
  8
0
 10
172.358640
 20
139.300250
 42
0.043499
  0
VERTEX
  8
0
 10
175.127203
 20
137.189595
 42
0.062450
  0
VERTEX
  8
0
 10
177.914945
 20
135.878248
 42
-0.029054
  0
VERTEX
  8
0
 10
179.493174
 20
135.260584
 42
-0.017829
  0
VERTEX
  8
0
 10
181.277241
 20
134.361540
 42
-0.017855
  0
VERTEX
  8
0
 10
182.985000
 20
133.342157
 42
-0.030206
  0
VERTEX
  8
0
 10
184.326725
 20
132.355133
 42
0.113158
  0
VERTEX
  8
0
 10
188.307079
 20
130.336838
 42
0.103768
  0
VERTEX
  8
0
 10
192.902883
 20
130.166115
 42
0.113439
  0
VERTEX
  8
0
 10
196.865760
 20
131.820971
 42
0.158189
  0
VERTEX
  8
0
 10
199.130391
 20
134.891172
 42
-0.261480
  0
VERTEX
  8
0
 10
200.426322
 20
136.068638
 42
-0.013016
  0
VERTEX
  8
0
 10
206.268099
 20
137.252833
 42
-0.020945
  0
VERTEX
  8
0
 10
212.663919
 20
138.102589
 42
-0.030521
  0
VERTEX
  8
0
 10
218.347225
 20
138.268481
 42
-0.016335
  0
VERTEX
  8
0
 10
221.517117
 20
138.063711
 42
-0.056018
  0
VERTEX
  8
0
 10
223.532716
 20
137.636010
 42
-0.075849
  0
VERTEX
  8
0
 10
225.063992
 20
136.853502
 42
-0.049930
  0
VERTEX
  8
0
 10
226.549476
 20
135.541115
 42
0.109685
  0
VERTEX
  8
0
 10
229.585273
 20
133.442344
 42
0.110033
  0
VERTEX
  8
0
 10
233.220443
 20
132.828780
 42
0.104093
  0
VERTEX
  8
0
 10
236.933601
 20
133.814235
 42
0.088946
  0
VERTEX
  8
0
 10
240.176025
 20
136.250000
 42
-0.000586
  0
VERTEX
  8
0
 10
241.570906
 20
137.746513
 42
-0.000323
  0
VERTEX
  8
0
 10
243.279974
 20
139.573437
 42
-0.000322
  0
VERTEX
  8
0
 10
245.015600
 20
141.423967
 42
-0.000516
  0
VERTEX
  8
0
 10
246.498747
 20
143.000000
 42
0.027415
  0
VERTEX
  8
0
 10
249.452415
 20
146.497754
 42
0.068283
  0
VERTEX
  8
0
 10
251.083499
 20
149.413117
 42
0.067387
  0
VERTEX
  8
0
 10
251.880899
 20
152.683360
 42
0.026156
  0
VERTEX
  8
0
 10
252.125000
 20
157.346482
 42
0.066861
  0
VERTEX
  8
0
 10
250.948571
 20
166.104705
 42
0.068714
  0
VERTEX
  8
0
 10
247.504703
 20
174.154426
 42
0.071323
  0
VERTEX
  8
0
 10
242.154131
 20
180.718765
 42
0.082194
  0
VERTEX
  8
0
 10
235.406331
 20
185.144459
 42
-0.025760
  0
VERTEX
  8
0
 10
233.634432
 20
186.040027
 42
-0.040505
  0
VERTEX
  8
0
 10
232.228085
 20
187.003102
 42
-0.048681
  0
VERTEX
  8
0
 10
231.283481
 20
187.935147
 42
-0.175470
  0
VERTEX
  8
0
 10
231.000000
 20
188.718054
 42
0.077132
  0
VERTEX
  8
0
 10
230.883171
 20
189.470882
 42
0.034765
  0
VERTEX
  8
0
 10
230.513847
 20
190.402525
 42
0.033366
  0
VERTEX
  8
0
 10
229.978400
 20
191.351683
 42
0.038827
  0
VERTEX
  8
0
 10
229.345012
 20
192.171259
 42
-0.027832
  0
VERTEX
  8
0
 10
228.739599
 20
192.920051
 42
-0.089583
  0
VERTEX
  8
0
 10
228.464548
 20
193.495938
 42
-0.231882
  0
VERTEX
  8
0
 10
228.530898
 20
193.843144
 42
-0.235796
  0
VERTEX
  8
0
 10
228.845012
 20
194.000000
 42
0.120949
  0
VERTEX
  8
0
 10
229.285526
 20
194.108142
 42
0.100727
  0
VERTEX
  8
0
 10
229.660722
 20
194.412937
 42
0.091646
  0
VERTEX
  8
0
 10
229.912737
 20
194.868810
 42
0.080731
  0
VERTEX
  8
0
 10
230.000000
 20
195.405744
 42
-0.221810
  0
VERTEX
  8
0
 10
230.328818
 20
196.110490
 42
-0.022481
  0
VERTEX
  8
0
 10
231.835938
 20
197.262726
 42
-0.024772
  0
VERTEX
  8
0
 10
233.855703
 20
198.524090
 42
-0.017197
  0
VERTEX
  8
0
 10
236.250000
 20
199.753364
 42
0.033761
  0
VERTEX
  8
0
 10
242.204565
 20
203.064040
 42
0.027910
  0
VERTEX
  8
0
 10
248.068796
 20
207.346303
 42
0.028658
  0
VERTEX
  8
0
 10
253.200297
 20
212.068049
 42
0.046192
  0
VERTEX
  8
0
 10
256.920115
 20
216.693112
 42
0.088201
  0
VERTEX
  8
0
 10
259.750041
 20
223.220673
 42
0.184767
  0
VERTEX
  8
0
 10
259.031177
 20
228.623236
 42
0.167795
  0
VERTEX
  8
0
 10
254.771954
 20
232.517031
 42
0.070920
  0
VERTEX
  8
0
 10
247.199537
 20
234.584344
 42
0.027632
  0
VERTEX
  8
0
 10
244.358469
 20
234.782573
 42
0.010496
  0
VERTEX
  8
0
 10
240.383614
 20
234.756416
 42
0.010358
  0
VERTEX
  8
0
 10
236.054957
 20
234.547241
 42
0.012473
  0
VERTEX
  8
0
 10
232.000000
 20
234.165169
 42
-0.004545
  0
VERTEX
  8
0
 10
226.431919
 20
233.551319
 42
-0.037585
  0
VERTEX
  8
0
 10
223.888771
 20
233.486263
 42
-0.095835
  0
VERTEX
  8
0
 10
222.445630
 20
233.840413
 42
-0.150037
  0
VERTEX
  8
0
 10
221.500000
 20
234.685971
 42
0.039238
  0
VERTEX
  8
0
 10
219.381042
 20
237.642858
 42
0.022624
  0
VERTEX
  8
0
 10
216.408732
 20
240.862549
 42
0.022636
  0
VERTEX
  8
0
 10
213.232701
 20
243.732539
 42
0.049046
  0
VERTEX
  8
0
 10
210.504447
 20
245.565362
 42
0.000000
  0
VERTEX
  8
0
 10
206.907999
 20
247.500000
 42
0.000000
  0
VERTEX
  8
0
 10
207.704000
 20
255.500000
 42
0.014310
  0
VERTEX
  8
0
 10
208.321894
 20
264.242979
 42
0.023384
  0
VERTEX
  8
0
 10
208.286077
 20
271.672103
 42
0.027565
  0
VERTEX
  8
0
 10
207.647089
 20
277.638236
 42
0.073283
  0
VERTEX
  8
0
 10
206.350806
 20
281.711386
 42
0.027173
  0
VERTEX
  8
0
 10
205.176395
 20
283.817114
 42
0.100676
  0
VERTEX
  8
0
 10
204.129873
 20
284.909932
 42
0.103770
  0
VERTEX
  8
0
 10
202.757096
 20
285.489616
 42
0.029839
  0
VERTEX
  8
0
 10
200.459211
 20
285.797275
 42
0.035844
  0
VERTEX
  8
0
 10
198.356333
 20
285.801015
 42
0.051025
  0
VERTEX
  8
0
 10
196.516849
 20
285.481766
 42
0.049473
  0
VERTEX
  8
0
 10
194.738621
 20
284.786590
 42
0.031184
  0
SEQEND
  0
POLYLINE
  8
0
 66
1
 70
1
  0
VERTEX
  8
0
 10
203.592226
 20
281.898091
 42
-0.145968
  0
VERTEX
  8
0
 10
205.167516
 20
278.600664
 42
-0.026440
  0
VERTEX
  8
0
 10
205.872490
 20
271.775169
 42
-0.025743
  0
VERTEX
  8
0
 10
205.860363
 20
263.236302
 42
-0.018308
  0
VERTEX
  8
0
 10
205.004710
 20
253.702121
 42
0.009012
  0
VERTEX
  8
0
 10
204.341275
 20
247.588504
 42
0.046711
  0
VERTEX
  8
0
 10
204.352418
 20
244.194537
 42
0.342794
  0
VERTEX
  8
0
 10
205.016518
 20
243.491774
 42
0.301251
  0
VERTEX
  8
0
 10
205.952651
 20
243.923388
 42
-0.410801
  0
VERTEX
  8
0
 10
208.390658
 20
244.513957
 42
-0.048035
  0
VERTEX
  8
0
 10
213.358814
 20
240.831101
 42
-0.044107
  0
VERTEX
  8
0
 10
217.904170
 20
235.939635
 42
-0.210378
  0
VERTEX
  8
0
 10
218.811158
 20
232.325427
 42
0.071163
  0
VERTEX
  8
0
 10
218.787598
 20
231.444882
 42
0.212488
  0
VERTEX
  8
0
 10
219.087489
 20
230.937809
 42
0.150364
  0
VERTEX
  8
0
 10
219.758497
 20
230.715836
 42
0.032103
  0
VERTEX
  8
0
 10
221.000000
 20
230.769506
 42
-0.011754
  0
VERTEX
  8
0
 10
222.599254
 20
230.903969
 42
-0.001075
  0
VERTEX
  8
0
 10
226.584375
 20
231.136265
 42
-0.001390
  0
VERTEX
  8
0
 10
231.338837
 20
231.389901
 42
-0.001088
  0
VERTEX
  8
0
 10
236.500000
 20
231.639593
 42
-0.005311
  0
VERTEX
  8
0
 10
243.390575
 20
231.884607
 42
-0.020481
  0
VERTEX
  8
0
 10
247.671874
 20
231.815947
 42
-0.032930
  0
VERTEX
  8
0
 10
250.705436
 20
231.441459
 42
-0.051952
  0
VERTEX
  8
0
 10
253.214409
 20
230.685984
 42
-0.153707
  0
VERTEX
  8
0
 10
256.830068
 20
227.632434
 42
-0.203216
  0
VERTEX
  8
0
 10
257.524192
 20
223.424525
 42
-0.111247
  0
VERTEX
  8
0
 10
254.805264
 20
217.923872
 42
-0.034534
  0
VERTEX
  8
0
 10
248.481076
 20
211.131178
 42
-0.029788
  0
VERTEX
  8
0
 10
242.321416
 20
206.021427
 42
-0.044295
  0
VERTEX
  8
0
 10
236.331516
 20
202.394884
 42
-0.050229
  0
VERTEX
  8
0
 10
230.439692
 20
200.207360
 42
-0.060056
  0
VERTEX
  8
0
 10
224.576248
 20
199.409965
 42
0.009201
  0
VERTEX
  8
0
 10
221.169258
 20
199.295449
 42
0.072528
  0
VERTEX
  8
0
 10
219.622567
 20
198.987062
 42
0.174366
  0
VERTEX
  8
0
 10
218.848445
 20
198.352216
 42
0.116809
  0
VERTEX
  8
0
 10
218.499968
 20
197.249568
 42
-0.053926
  0
VERTEX
  8
0
 10
218.320218
 20
196.268927
 42
-0.022981
  0
VERTEX
  8
0
 10
217.880938
 20
195.007021
 42
-0.022417
  0
VERTEX
  8
0
 10
217.284385
 20
193.691614
 42
-0.027367
  0
VERTEX
  8
0
 10
216.606819
 20
192.522682
 42
-0.022888
  0
VERTEX
  8
0
 10
215.641524
 20
191.187026
 42
-0.117081
  0
VERTEX
  8
0
 10
214.926904
 20
190.625363
 42
-0.197162
  0
VERTEX
  8
0
 10
214.238484
 20
190.595266
 42
-0.086990
  0
VERTEX
  8
0
 10
213.433098
 20
191.055523
 42
0.035715
  0
VERTEX
  8
0
 10
212.882383
 20
191.449786
 42
0.087827
  0
VERTEX
  8
0
 10
212.420973
 20
191.631261
 42
0.192824
  0
VERTEX
  8
0
 10
212.128130
 20
191.577532
 42
0.257572
  0
VERTEX
  8
0
 10
212.000000
 20
191.345306
 42
-0.143643
  0
VERTEX
  8
0
 10
211.847407
 20
190.825111
 42
-0.013597
  0
VERTEX
  8
0
 10
211.091973
 20
189.715813
 42
-0.016509
  0
VERTEX
  8
0
 10
210.092772
 20
188.423210
 42
-0.012266
  0
VERTEX
  8
0
 10
208.908843
 20
187.061339
 42
-0.018022
  0
VERTEX
  8
0
 10
207.476977
 20
185.602847
 42
-0.059170
  0
VERTEX
  8
0
 10
206.396397
 20
184.797689
 42
-0.123509
  0
VERTEX
  8
0
 10
205.615882
 20
184.576295
 42
-0.268121
  0
VERTEX
  8
0
 10
205.085694
 20
184.861344
 42
0.159101
  0
VERTEX
  8
0
 10
204.528090
 20
185.332596
 42
0.116343
  0
VERTEX
  8
0
 10
203.721549
 20
185.458177
 42
0.062997
  0
VERTEX
  8
0
 10
202.528803
 20
185.212656
 42
0.016737
  0
VERTEX
  8
0
 10
200.708969
 20
184.522866
 42
-0.063934
  0
VERTEX
  8
0
 10
195.610149
 20
183.122232
 42
-0.080351
  0
VERTEX
  8
0
 10
190.718553
 20
183.219910
 42
-0.074927
  0
VERTEX
  8
0
 10
185.849322
 20
184.887191
 42
-0.047631
  0
VERTEX
  8
0
 10
180.809941
 20
188.150529
 42
0.022472
  0
VERTEX
  8
0
 10
178.020276
 20
190.162871
 42
0.165696
  0
VERTEX
  8
0
 10
176.452886
 20
190.565713
 42
0.561385
  0
VERTEX
  8
0
 10
176.103857
 20
189.880085
 42
0.045871
  0
VERTEX
  8
0
 10
177.588247
 20
187.902488
 42
0.054968
  0
VERTEX
  8
0
 10
180.147355
 20
185.633381
 42
0.028128
  0
VERTEX
  8
0
 10
183.789264
 20
183.353438
 42
0.028113
  0
VERTEX
  8
0
 10
187.682679
 20
181.487631
 42
0.052569
  0
VERTEX
  8
0
 10
191.031608
 20
180.504169
 42
0.042066
  0
VERTEX
  8
0
 10
192.743384
 20
180.338449
 42
0.028005
  0
VERTEX
  8
0
 10
194.713776
 20
180.424345
 42
0.027172
  0
VERTEX
  8
0
 10
196.744186
 20
180.739300
 42
0.030902
  0
VERTEX
  8
0
 10
198.641049
 20
181.264287
 42
-0.011694
  0
VERTEX
  8
0
 10
200.925099
 20
181.991918
 42
-0.071139
  0
VERTEX
  8
0
 10
202.149630
 20
182.168207
 42
-0.145107
  0
VERTEX
  8
0
 10
202.953669
 20
181.930669
 42
-0.107628
  0
VERTEX
  8
0
 10
203.609442
 20
181.268974
 42
0.195154
  0
VERTEX
  8
0
 10
204.279680
 20
180.791638
 42
0.161379
  0
VERTEX
  8
0
 10
205.159541
 20
180.868026
 42
0.064160
  0
VERTEX
  8
0
 10
206.471498
 20
181.645109
 42
0.011462
  0
VERTEX
  8
0
 10
208.679905
 20
183.452291
 42
-0.017393
  0
VERTEX
  8
0
 10
210.458412
 20
184.872797
 42
-0.039902
  0
VERTEX
  8
0
 10
211.910397
 20
185.781920
 42
-0.058819
  0
VERTEX
  8
0
 10
212.981808
 20
186.187828
 42
-0.326365
  0
VERTEX
  8
0
 10
213.518933
 20
185.969366
 42
0.312826
  0
VERTEX
  8
0
 10
214.460487
 20
185.559176
 42
0.160436
  0
VERTEX
  8
0
 10
215.635624
 20
186.222167
 42
0.059423
  0
VERTEX
  8
0
 10
217.129887
 20
188.314074
 42
0.015883
  0
VERTEX
  8
0
 10
218.985120
 20
191.968230
 42
-0.015098
  0
VERTEX
  8
0
 10
220.397119
 20
194.760223
 42
-0.078590
  0
VERTEX
  8
0
 10
221.445397
 20
196.124174
 42
-0.125141
  0
VERTEX
  8
0
 10
222.619854
 20
196.780619
 42
-0.065265
  0
VERTEX
  8
0
 10
224.293382
 20
197.000000
 42
-0.013048
  0
VERTEX
  8
0
 10
225.936960
 20
196.957101
 42
-0.171549
  0
VERTEX
  8
0
 10
226.490889
 20
196.728121
 42
-0.353860
  0
VERTEX
  8
0
 10
226.558266
 20
196.307420
 42
-0.042854
  0
VERTEX
  8
0
 10
225.984433
 20
195.481242
 42
0.058009
  0
VERTEX
  8
0
 10
225.421331
 20
194.615804
 42
0.149801
  0
VERTEX
  8
0
 10
225.301277
 20
193.888343
 42
0.120009
  0
VERTEX
  8
0
 10
225.603655
 20
193.114966
 42
0.031004
  0
VERTEX
  8
0
 10
226.444952
 20
192.060827
 42
-0.018108
  0
VERTEX
  8
0
 10
227.453619
 20
190.861718
 42
-0.200391
  0
VERTEX
  8
0
 10
227.615858
 20
190.269975
 42
-0.219333
  0
VERTEX
  8
0
 10
227.301857
 20
189.768887
 42
-0.021952
  0
VERTEX
  8
0
 10
226.054956
 20
189.029412
 42
0.106937
  0
VERTEX
  8
0
 10
224.752094
 20
187.922052
 42
0.380580
  0
VERTEX
  8
0
 10
224.826522
 20
186.918623
 42
0.097140
  0
VERTEX
  8
0
 10
226.526967
 20
185.814776
 42
0.009064
  0
VERTEX
  8
0
 10
231.219285
 20
184.027228
 42
-0.075492
  0
VERTEX
  8
0
 10
238.918068
 20
179.855801
 42
-0.078650
  0
VERTEX
  8
0
 10
244.907950
 20
173.636038
 42
-0.078408
  0
VERTEX
  8
0
 10
248.697573
 20
165.852593
 42
-0.074371
  0
VERTEX
  8
0
 10
249.998446
 20
157.135165
 42
-0.053084
  0
VERTEX
  8
0
 10
249.570907
 20
153.132284
 42
-0.051940
  0
VERTEX
  8
0
 10
248.309659
 20
149.278129
 42
-0.058056
  0
VERTEX
  8
0
 10
246.591088
 20
146.385124
 42
-0.233823
  0
VERTEX
  8
0
 10
244.801851
 20
145.500000
 42
0.166545
  0
VERTEX
  8
0
 10
243.966285
 20
145.213742
 42
0.043602
  0
VERTEX
  8
0
 10
242.912053
 20
144.236989
 42
0.037512
  0
VERTEX
  8
0
 10
241.792030
 20
142.797990
 42
0.024940
  0
VERTEX
  8
0
 10
240.722723
 20
141.000000
 42
-0.051171
  0
VERTEX
  8
0
 10
238.657128
 20
137.907714
 42
-0.091925
  0
VERTEX
  8
0
 10
236.323404
 20
135.956781
 42
-0.105394
  0
VERTEX
  8
0
 10
233.680798
 20
135.130782
 42
-0.084913
  0
VERTEX
  8
0
 10
230.707082
 20
135.358670
 42
-0.058054
  0
VERTEX
  8
0
 10
229.677275
 20
135.748508
 42
-0.050342
  0
VERTEX
  8
0
 10
228.709944
 20
136.380147
 42
-0.052969
  0
VERTEX
  8
0
 10
227.944530
 20
137.144798
 42
-0.093452
  0
VERTEX
  8
0
 10
227.522560
 20
137.928920
 42
-0.133969
  0
VERTEX
  8
0
 10
227.422301
 20
140.374161
 42
-0.055910
  0
VERTEX
  8
0
 10
228.522917
 20
143.514714
 42
-0.051372
  0
VERTEX
  8
0
 10
230.489888
 20
146.712608
 42
-0.054353
  0
VERTEX
  8
0
 10
233.034913
 20
149.375924
 42
-0.025309
  0
VERTEX
  8
0
 10
234.888152
 20
150.781549
 42
-0.071090
  0
VERTEX
  8
0
 10
236.346093
 20
151.497270
 42
-0.082380
  0
VERTEX
  8
0
 10
237.817577
 20
151.719695
 42
-0.042796
  0
VERTEX
  8
0
 10
239.670887
 20
151.533919
 42
0.044993
  0
VERTEX
  8
0
 10
241.796628
 20
151.330249
 42
0.208435
  0
VERTEX
  8
0
 10
242.905078
 20
151.805957
 42
0.439140
  0
VERTEX
  8
0
 10
242.848542
 20
152.577401
 42
0.076062
  0
VERTEX
  8
0
 10
241.418213
 20
153.393011
 42
0.122617
  0
VERTEX
  8
0
 10
237.405943
 20
153.886548
 42
0.100944
  0
VERTEX
  8
0
 10
233.303705
 20
152.514212
 42
0.087549
  0
VERTEX
  8
0
 10
229.603158
 20
149.405562
 42
0.066935
  0
VERTEX
  8
0
 10
226.772923
 20
144.928991
 42
-0.016400
  0
VERTEX
  8
0
 10
225.085162
 20
141.547238
 42
-0.156022
  0
VERTEX
  8
0
 10
223.934707
 20
140.441588
 42
-0.155883
  0
VERTEX
  8
0
 10
222.355705
 20
140.208247
 42
-0.016362
  0
VERTEX
  8
0
 10
218.644612
 20
140.942315
 42
0.032666
  0
VERTEX
  8
0
 10
216.636655
 20
141.271915
 42
0.040974
  0
VERTEX
  8
0
 10
214.751014
 20
141.301117
 42
0.039838
  0
VERTEX
  8
0
 10
212.843718
 20
141.020557
 42
0.028383
  0
VERTEX
  8
0
 10
210.768885
 20
140.418458
 42
-0.026531
  0
VERTEX
  8
0
 10
208.920416
 20
139.874621
 42
-0.015888
  0
VERTEX
  8
0
 10
206.676423
 20
139.416672
 42
-0.015888
  0
VERTEX
  8
0
 10
204.407625
 20
139.102113
 42
-0.026505
  0
VERTEX
  8
0
 10
202.482682
 20
139.000000
 42
-0.018447
  0
VERTEX
  8
0
 10
200.155685
 20
139.085882
 42
-0.091565
  0
VERTEX
  8
0
 10
198.894672
 20
139.416482
 42
-0.146955
  0
VERTEX
  8
0
 10
198.141150
 20
140.091965
 42
-0.075701
  0
VERTEX
  8
0
 10
197.646878
 20
141.270814
 42
0.099783
  0
VERTEX
  8
0
 10
196.458848
 20
143.763157
 42
0.034462
  0
VERTEX
  8
0
 10
193.838219
 20
146.795987
 42
0.034408
  0
VERTEX
  8
0
 10
190.830826
 20
149.436305
 42
0.101800
  0
VERTEX
  8
0
 10
188.367442
 20
150.622626
 42
0.066495
  0
VERTEX
  8
0
 10
186.083064
 20
150.882119
 42
0.051399
  0
VERTEX
  8
0
 10
183.593663
 20
150.575905
 42
0.055328
  0
VERTEX
  8
0
 10
181.594080
 20
149.878370
 42
0.288803
  0
VERTEX
  8
0
 10
181.000000
 20
148.935635
 42
0.285599
  0
VERTEX
  8
0
 10
181.232975
 20
148.561032
 42
0.084686
  0
VERTEX
  8
0
 10
181.908840
 20
148.360040
 42
0.052607
  0
VERTEX
  8
0
 10
182.961589
 20
148.344279
 42
0.023830
  0
VERTEX
  8
0
 10
184.329113
 20
148.533919
 42
-0.118554
  0
VERTEX
  8
0
 10
187.352207
 20
148.380936
 42
-0.085287
  0
VERTEX
  8
0
 10
190.397224
 20
146.884665
 42
-0.072436
  0
VERTEX
  8
0
 10
193.184165
 20
144.174072
 42
-0.052949
  0
VERTEX
  8
0
 10
195.439727
 20
140.485773
 42
-0.055520
  0
VERTEX
  8
0
 10
196.463246
 20
137.518335
 42
-0.120444
  0
VERTEX
  8
0
 10
196.418868
 20
135.122522
 42
-0.154690
  0
VERTEX
  8
0
 10
195.324004
 20
133.396212
 42
-0.113671
  0
VERTEX
  8
0
 10
193.292918
 20
132.358670
 42
-0.083262
  0
VERTEX
  8
0
 10
190.248199
 20
132.115292
 42
-0.106600
  0
VERTEX
  8
0
 10
187.567148
 20
132.941035
 42
-0.094663
  0
VERTEX
  8
0
 10
185.239382
 20
134.901425
 42
-0.053899
  0
VERTEX
  8
0
 10
183.233295
 20
138.001074
 42
0.021974
  0
VERTEX
  8
0
 10
181.409951
 20
141.255807
 42
0.104799
  0
VERTEX
  8
0
 10
179.944545
 20
142.787060
 42
0.564189
  0
VERTEX
  8
0
 10
179.256837
 20
142.472652
 42
0.090382
  0
VERTEX
  8
0
 10
179.377921
 20
140.630377
 42
-0.041207
  0
VERTEX
  8
0
 10
179.688152
 20
138.750329
 42
-0.383839
  0
VERTEX
  8
0
 10
179.229817
 20
138.149695
 42
-0.172702
  0
VERTEX
  8
0
 10
178.132510
 20
138.322337
 42
-0.012378
  0
VERTEX
  8
0
 10
175.419965
 20
139.885678
 42
-0.131168
  0
VERTEX
  8
0
 10
171.114935
 20
144.393826
 42
-0.107346
  0
VERTEX
  8
0
 10
169.217995
 20
150.805884
 42
-0.093356
  0
VERTEX
  8
0
 10
170.052979
 20
158.202666
 42
-0.074550
  0
VERTEX
  8
0
 10
173.530809
 20
165.450261
 42
0.034759
  0
VERTEX
  8
0
 10
175.277448
 20
168.453690
 42
0.212646
  0
VERTEX
  8
0
 10
175.344317
 20
170.203274
 42
0.508035
  0
VERTEX
  8
0
 10
174.352318
 20
170.456400
 42
0.051466
  0
VERTEX
  8
0
 10
172.343287
 20
168.416113
 42
-0.006435
  0
VERTEX
  8
0
 10
170.943156
 20
166.711735
 42
-0.129590
  0
VERTEX
  8
0
 10
170.398710
 20
166.329202
 42
-0.471644
  0
VERTEX
  8
0
 10
170.091193
 20
166.508013
 42
-0.040091
  0
VERTEX
  8
0
 10
170.004967
 20
167.550000
 42
-0.038338
  0
VERTEX
  8
0
 10
170.068505
 20
168.404566
 42
-0.033835
  0
VERTEX
  8
0
 10
170.262193
 20
169.276875
 42
-0.035391
  0
VERTEX
  8
0
 10
170.547066
 20
170.040900
 42
-0.081131
  0
VERTEX
  8
0
 10
170.887605
 20
170.550000
 42
0.054537
  0
VERTEX
  8
0
 10
171.275482
 20
171.068258
 42
0.019519
  0
VERTEX
  8
0
 10
171.714163
 20
171.881875
 42
0.019095
  0
VERTEX
  8
0
 10
172.129556
 20
172.818905
 42
0.021424
  0
VERTEX
  8
0
 10
172.454993
 20
173.750000
 42
0.083717
  0
VERTEX
  8
0
 10
172.673860
 20
175.472835
 42
0.481828
  0
VERTEX
  8
0
 10
172.034416
 20
175.941128
 42
0.169526
  0
VERTEX
  8
0
 10
170.808941
 20
175.099563
 42
0.039001
  0
VERTEX
  8
0
 10
169.467018
 20
172.936221
 42
-0.058895
  0
VERTEX
  8
0
 10
168.030341
 20
170.813094
 42
-0.293857
  0
VERTEX
  8
0
 10
166.715005
 20
170.425422
 42
-0.209553
  0
VERTEX
  8
0
 10
165.460526
 20
171.478061
 42
-0.034526
  0
VERTEX
  8
0
 10
164.228474
 20
174.471021
 42
-0.041836
  0
VERTEX
  8
0
 10
163.464246
 20
177.623109
 42
-0.097471
  0
VERTEX
  8
0
 10
163.561194
 20
180.040141
 42
-0.190424
  0
VERTEX
  8
0
 10
164.460943
 20
181.325407
 42
-0.226516
  0
VERTEX
  8
0
 10
165.913591
 20
181.527425
 42
0.103210
  0
VERTEX
  8
0
 10
166.770139
 20
181.440065
 42
0.125101
  0
VERTEX
  8
0
 10
167.525633
 20
181.718380
 42
0.094956
  0
VERTEX
  8
0
 10
168.203167
 20
182.403842
 42
0.040700
  0
VERTEX
  8
0
 10
168.832940
 20
183.532688
 42
0.008738
  0
VERTEX
  8
0
 10
169.847157
 20
185.865871
 42
0.247202
  0
VERTEX
  8
0
 10
169.788418
 20
186.501775
 42
0.294311
  0
VERTEX
  8
0
 10
169.245757
 20
186.745116
 42
0.011620
  0
VERTEX
  8
0
 10
167.000000
 20
186.350000
 42
-0.020985
  0
VERTEX
  8
0
 10
164.871402
 20
186.016459
 42
-0.284360
  0
VERTEX
  8
0
 10
164.190180
 20
186.337688
 42
-0.269607
  0
VERTEX
  8
0
 10
164.152066
 20
187.108862
 42
-0.019379
  0
VERTEX
  8
0
 10
165.250000
 20
189.044081
 42
0.027445
  0
VERTEX
  8
0
 10
165.845277
 20
190.133890
 42
0.124517
  0
VERTEX
  8
0
 10
165.986016
 20
190.837929
 42
0.175040
  0
VERTEX
  8
0
 10
165.754026
 20
191.391220
 42
0.067739
  0
VERTEX
  8
0
 10
165.104283
 20
191.929588
 42
-0.094866
  0
VERTEX
  8
0
 10
164.591699
 20
192.403128
 42
-0.090986
  0
VERTEX
  8
0
 10
164.281022
 20
193.039227
 42
-0.086084
  0
VERTEX
  8
0
 10
164.206354
 20
193.775154
 42
-0.074080
  0
VERTEX
  8
0
 10
164.375132
 20
194.535195
 42
-0.031263
  0
VERTEX
  8
0
 10
164.821929
 20
195.512217
 42
-0.265651
  0
VERTEX
  8
0
 10
165.215379
 20
195.758929
 42
-0.181489
  0
VERTEX
  8
0
 10
165.734258
 20
195.587953
 42
-0.014548
  0
VERTEX
  8
0
 10
166.849590
 20
194.636119
 42
0.051760
  0
VERTEX
  8
0
 10
168.171750
 20
193.667780
 42
0.065473
  0
VERTEX
  8
0
 10
169.567209
 20
193.081159
 42
0.107647
  0
VERTEX
  8
0
 10
170.597732
 20
193.026775
 42
0.367595
  0
VERTEX
  8
0
 10
171.000000
 20
193.500000
 42
0.178623
  0
VERTEX
  8
0
 10
170.882940
 20
193.817220
 42
0.004495
  0
VERTEX
  8
0
 10
169.858723
 20
194.994402
 42
0.009090
  0
VERTEX
  8
0
 10
168.603713
 20
196.360080
 42
0.006006
  0
VERTEX
  8
0
 10
167.114802
 20
197.885198
 42
-0.058595
  0
VERTEX
  8
0
 10
163.403870
 20
202.585196
 42
-0.056605
  0
VERTEX
  8
0
 10
160.833187
 20
208.071303
 42
-0.052444
  0
VERTEX
  8
0
 10
159.421722
 20
214.373841
 42
-0.039078
  0
VERTEX
  8
0
 10
159.155017
 20
221.500000
 42
0.008673
  0
VERTEX
  8
0
 10
159.228489
 20
224.644282
 42
0.011911
  0
VERTEX
  8
0
 10
159.178137
 20
227.472157
 42
0.008709
  0
VERTEX
  8
0
 10
159.039896
 20
229.810844
 42
0.124302
  0
VERTEX
  8
0
 10
158.776156
 20
230.596703
 42
-0.313140
  0
VERTEX
  8
0
 10
158.826926
 20
232.014113
 42
-0.028161
  0
VERTEX
  8
0
 10
161.240390
 20
234.885034
 42
-0.034123
  0
VERTEX
  8
0
 10
164.187384
 20
237.615202
 42
-0.079085
  0
VERTEX
  8
0
 10
166.794516
 20
239.111975
 42
0.045399
  0
VERTEX
  8
0
 10
167.865779
 20
239.634824
 42
0.118967
  0
VERTEX
  8
0
 10
168.469162
 20
240.233657
 42
0.140963
  0
VERTEX
  8
0
 10
168.675748
 20
240.973528
 42
0.075024
  0
VERTEX
  8
0
 10
168.525351
 20
241.920125
 42
-0.071963
  0
VERTEX
  8
0
 10
168.369682
 20
242.862830
 42
-0.145734
  0
VERTEX
  8
0
 10
168.568071
 20
243.581185
 42
-0.125533
  0
VERTEX
  8
0
 10
169.156648
 20
244.143016
 42
-0.046875
  0
VERTEX
  8
0
 10
170.208210
 20
244.610992
 42
-0.025523
  0
VERTEX
  8
0
 10
171.201392
 20
244.890141
 42
-0.020655
  0
VERTEX
  8
0
 10
172.290516
 20
245.090193
 42
-0.021124
  0
VERTEX
  8
0
 10
173.312469
 20
245.190780
 42
-0.049474
  0
VERTEX
  8
0
 10
174.078651
 20
245.157814
 42
0.181488
  0
VERTEX
  8
0
 10
174.843783
 20
245.326664
 42
0.160935
  0
VERTEX
  8
0
 10
175.355864
 20
245.965908
 42
0.069309
  0
VERTEX
  8
0
 10
175.648538
 20
247.287968
 42
0.013718
  0
VERTEX
  8
0
 10
175.774997
 20
249.716170
 42
-0.072366
  0
VERTEX
  8
0
 10
177.193944
 20
258.028293
 42
-0.049192
  0
VERTEX
  8
0
 10
181.041845
 20
266.836576
 42
-0.048208
  0
VERTEX
  8
0
 10
186.660852
 20
274.936177
 42
-0.060331
  0
VERTEX
  8
0
 10
193.364185
 20
281.148854
 42
-0.039496
  0
VERTEX
  8
0
 10
196.607419
 20
283.128211
 42
-0.099296
  0
VERTEX
  8
0
 10
199.263250
 20
283.866282
 42
-0.131066
  0
VERTEX
  8
0
 10
201.535037
 20
283.435204
 42
-0.097069
  0
SEQEND
  0
POLYLINE
  8
0
 66
1
 70
1
  0
VERTEX
  8
0
 10
196.000000
 20
278.240547
 42
0.163755
  0
VERTEX
  8
0
 10
196.125287
 20
277.868262
 42
0.033519
  0
VERTEX
  8
0
 10
196.587500
 20
277.337283
 42
0.032010
  0
VERTEX
  8
0
 10
197.234299
 20
276.765962
 42
0.025323
  0
VERTEX
  8
0
 10
198.000000
 20
276.232073
 42
-0.095993
  0
VERTEX
  8
0
 10
199.021126
 20
275.281468
 42
-0.093853
  0
VERTEX
  8
0
 10
199.623278
 20
274.010974
 42
-0.052635
  0
VERTEX
  8
0
 10
199.921856
 20
272.038905
 42
-0.011273
  0
VERTEX
  8
0
 10
200.000000
 20
268.573314
 42
-0.012624
  0
VERTEX
  8
0
 10
199.866111
 20
263.271322
 42
-0.085197
  0
VERTEX
  8
0
 10
199.293513
 20
260.716464
 42
-0.186550
  0
VERTEX
  8
0
 10
198.100039
 20
259.459066
 42
-0.111107
  0
VERTEX
  8
0
 10
196.059678
 20
259.000000
 42
0.033872
  0
VERTEX
  8
0
 10
193.905266
 20
258.853884
 42
0.153565
  0
VERTEX
  8
0
 10
192.780276
 20
258.324006
 42
0.283540
  0
VERTEX
  8
0
 10
192.541463
 20
257.472010
 42
0.103728
  0
VERTEX
  8
0
 10
193.151177
 20
256.317843
 42
-0.071941
  0
VERTEX
  8
0
 10
193.880246
 20
255.126270
 42
-0.384051
  0
VERTEX
  8
0
 10
193.654999
 20
254.464148
 42
-0.189638
  0
VERTEX
  8
0
 10
192.629645
 20
254.325192
 42
-0.030809
  0
VERTEX
  8
0
 10
190.674090
 20
254.933811
 42
0.028005
  0
VERTEX
  8
0
 10
189.433363
 20
255.327594
 42
0.075254
  0
VERTEX
  8
0
 10
188.514506
 20
255.420811
 42
0.113788
  0
VERTEX
  8
0
 10
187.842385
 20
255.230649
 42
0.129440
  0
VERTEX
  8
0
 10
187.358351
 20
254.770806
 42
0.092320
  0
VERTEX
  8
0
 10
187.176391
 20
254.300916
 42
0.119927
  0
VERTEX
  8
0
 10
187.200940
 20
253.841408
 42
0.127621
  0
VERTEX
  8
0
 10
187.429759
 20
253.464786
 42
0.112779
  0
VERTEX
  8
0
 10
187.822949
 20
253.225684
 42
-0.119391
  0
VERTEX
  8
0
 10
188.839204
 20
252.589383
 42
-0.361090
  0
VERTEX
  8
0
 10
188.900324
 20
251.833585
 42
-0.182444
  0
VERTEX
  8
0
 10
187.960407
 20
251.193954
 42
-0.057977
  0
VERTEX
  8
0
 10
186.250000
 20
250.986345
 42
0.029708
  0
VERTEX
  8
0
 10
183.395612
 20
250.802372
 42
0.050765
  0
VERTEX
  8
0
 10
181.070046
 20
250.269605
 42
0.068656
  0
VERTEX
  8
0
 10
179.503851
 20
249.486318
 42
0.247356
  0
VERTEX
  8
0
 10
179.000000
 20
248.530161
 42
0.266152
  0
VERTEX
  8
0
 10
179.305603
 20
247.996714
 42
0.095279
  0
VERTEX
  8
0
 10
180.162781
 20
247.693185
 42
0.048125
  0
VERTEX
  8
0
 10
181.656847
 20
247.612179
 42
0.013447
  0
VERTEX
  8
0
 10
183.994833
 20
247.773525
 42
-0.020326
  0
VERTEX
  8
0
 10
186.145083
 20
247.892223
 42
-0.030644
  0
VERTEX
  8
0
 10
188.019011
 20
247.804514
 42
-0.035332
  0
VERTEX
  8
0
 10
189.507316
 20
247.535726
 42
-0.111310
  0
VERTEX
  8
0
 10
190.405805
 20
247.078174
 42
0.124257
  0
VERTEX
  8
0
 10
191.512336
 20
246.549819
 42
0.272025
  0
VERTEX
  8
0
 10
192.368522
 20
246.845925
 42
0.193489
  0
VERTEX
  8
0
 10
192.722028
 20
247.897227
 42
0.077286
  0
VERTEX
  8
0
 10
192.396256
 20
249.409758
 42
-0.060850
  0
VERTEX
  8
0
 10
192.244169
 20
250.018416
 42
-0.106925
  0
VERTEX
  8
0
 10
192.290456
 20
250.532866
 42
-0.150421
  0
VERTEX
  8
0
 10
192.522324
 20
250.870787
 42
-0.169294
  0
VERTEX
  8
0
 10
192.893011
 20
251.000000
 42
-0.089132
  0
VERTEX
  8
0
 10
193.315658
 20
250.924054
 42
-0.095054
  0
VERTEX
  8
0
 10
193.674822
 20
250.706250
 42
-0.099889
  0
VERTEX
  8
0
 10
193.915110
 20
250.381499
 42
-0.109914
  0
VERTEX
  8
0
 10
194.000000
 20
250.000000
 42
0.156260
  0
VERTEX
  8
0
 10
194.122177
 20
249.618605
 42
0.097495
  0
VERTEX
  8
0
 10
194.466445
 20
249.293750
 42
0.079650
  0
VERTEX
  8
0
 10
194.980697
 20
249.074475
 42
0.061098
  0
VERTEX
  8
0
 10
195.587898
 20
249.000000
 42
0.146674
  0
VERTEX
  8
0
 10
196.343472
 20
249.226520
 42
0.197569
  0
VERTEX
  8
0
 10
196.741306
 20
249.810361
 42
0.079992
  0
VERTEX
  8
0
 10
196.797452
 20
250.969969
 42
0.012469
  0
VERTEX
  8
0
 10
196.484978
 20
253.250000
 42
-0.007286
  0
VERTEX
  8
0
 10
196.148011
 20
255.532618
 42
-0.083509
  0
VERTEX
  8
0
 10
196.179363
 20
256.437364
 42
-0.455394
  0
VERTEX
  8
0
 10
196.499274
 20
256.618358
 42
-0.106620
  0
VERTEX
  8
0
 10
197.097080
 20
256.250000
 42
0.108982
  0
VERTEX
  8
0
 10
198.800605
 20
255.211258
 42
0.303598
  0
VERTEX
  8
0
 10
200.089730
 20
255.552883
 42
0.119638
  0
VERTEX
  8
0
 10
201.104864
 20
257.483445
 42
0.017278
  0
VERTEX
  8
0
 10
202.045498
 20
261.866611
 42
0.026744
  0
VERTEX
  8
0
 10
202.696032
 20
267.112964
 42
0.043942
  0
VERTEX
  8
0
 10
202.615858
 20
271.582691
 42
0.054333
  0
VERTEX
  8
0
 10
201.847940
 20
275.110683
 42
0.116148
  0
VERTEX
  8
0
 10
200.389289
 20
277.467854
 42
0.073916
  0
VERTEX
  8
0
 10
199.089655
 20
278.431121
 42
0.079169
  0
VERTEX
  8
0
 10
197.595722
 20
278.946611
 42
0.122825
  0
VERTEX
  8
0
 10
196.454499
 20
278.866399
 42
0.324799
  0
SEQEND
  0
POLYLINE
  8
0
 66
1
 70
1
  0
VERTEX
  8
0
 10
175.630685
 20
232.250000
 42
-0.004739
  0
VERTEX
  8
0
 10
176.070759
 20
230.362732
 42
-0.330417
  0
VERTEX
  8
0
 10
175.946225
 20
230.082842
 42
-0.315121
  0
VERTEX
  8
0
 10
175.634456
 20
230.113063
 42
-0.004492
  0
VERTEX
  8
0
 10
174.143606
 20
231.410536
 42
0.027946
  0
VERTEX
  8
0
 10
173.273798
 20
232.098602
 42
0.042780
  0
VERTEX
  8
0
 10
172.443751
 20
232.582578
 42
0.051777
  0
VERTEX
  8
0
 10
171.760023
 20
232.823600
 42
0.260901
  0
VERTEX
  8
0
 10
171.384255
 20
232.717588
 42
0.294488
  0
VERTEX
  8
0
 10
171.177830
 20
231.761371
 42
0.010698
  0
VERTEX
  8
0
 10
172.630703
 20
228.140337
 42
0.010919
  0
VERTEX
  8
0
 10
174.237086
 20
224.589085
 42
0.276872
  0
VERTEX
  8
0
 10
175.089485
 20
224.025798
 42
0.297533
  0
VERTEX
  8
0
 10
175.939485
 20
224.529149
 42
0.027429
  0
VERTEX
  8
0
 10
176.946949
 20
226.892757
 42
0.033302
  0
VERTEX
  8
0
 10
177.739723
 20
229.634256
 42
0.053781
  0
VERTEX
  8
0
 10
178.000000
 20
232.047053
 42
0.034413
  0
VERTEX
  8
0
 10
177.910134
 20
233.351197
 42
0.084580
  0
VERTEX
  8
0
 10
177.621395
 20
234.264015
 42
0.128442
  0
VERTEX
  8
0
 10
177.139568
 20
234.801768
 42
0.147228
  0
VERTEX
  8
0
 10
176.480948
 20
235.000000
 42
0.116091
  0
VERTEX
  8
0
 10
175.800595
 20
234.839877
 42
0.204960
  0
VERTEX
  8
0
 10
175.433291
 20
234.407482
 42
0.110662
  0
VERTEX
  8
0
 10
175.369701
 20
233.608658
 42
0.024398
  0
SEQEND
  0
POLYLINE
  8
0
 66
1
 70
1
  0
VERTEX
  8
0
 10
233.199254
 20
227.063685
 42
0.017290
  0
VERTEX
  8
0
 10
230.564228
 20
226.301829
 42
0.113997
  0
VERTEX
  8
0
 10
229.397061
 20
225.597360
 42
0.287218
  0
VERTEX
  8
0
 10
229.197974
 20
224.788592
 42
0.117380
  0
VERTEX
  8
0
 10
229.816667
 20
223.783333
 42
-0.055921
  0
VERTEX
  8
0
 10
230.888396
 20
222.440736
 42
-0.356340
  0
VERTEX
  8
0
 10
230.789182
 20
221.636049
 42
-0.211632
  0
VERTEX
  8
0
 10
229.781120
 20
221.272197
 42
-0.028689
  0
VERTEX
  8
0
 10
227.500000
 20
221.565978
 42
0.032463
  0
VERTEX
  8
0
 10
225.236132
 20
221.840198
 42
0.217112
  0
VERTEX
  8
0
 10
224.205692
 20
221.438216
 42
0.343226
  0
VERTEX
  8
0
 10
224.110847
 20
220.579492
 42
0.058603
  0
VERTEX
  8
0
 10
225.200000
 20
219.200000
 42
-0.068125
  0
VERTEX
  8
0
 10
225.647352
 20
218.610752
 42
-0.373751
  0
VERTEX
  8
0
 10
225.573461
 20
218.250000
 42
-0.148734
  0
VERTEX
  8
0
 10
225.022084
 20
218.043649
 42
-0.015703
  0
VERTEX
  8
0
 10
223.632612
 20
218.000000
 42
0.022407
  0
VERTEX
  8
0
 10
222.075738
 20
217.930195
 42
0.193922
  0
VERTEX
  8
0
 10
221.469638
 20
217.620255
 42
0.236193
  0
VERTEX
  8
0
 10
221.314846
 20
217.016864
 42
0.033583
  0
VERTEX
  8
0
 10
221.679003
 20
215.750000
 42
-0.050165
  0
VERTEX
  8
0
 10
221.977062
 20
214.566902
 42
-0.016112
  0
VERTEX
  8
0
 10
222.183901
 20
212.765625
 42
-0.015891
  0
VERTEX
  8
0
 10
222.286256
 20
210.733609
 42
-0.017140
  0
VERTEX
  8
0
 10
222.255054
 20
208.750000
 42
0.024969
  0
VERTEX
  8
0
 10
222.254809
 20
205.614294
 42
0.164520
  0
VERTEX
  8
0
 10
222.822945
 20
204.175049
 42
0.530782
  0
VERTEX
  8
0
 10
223.585898
 20
204.257175
 42
0.056508
  0
VERTEX
  8
0
 10
224.369714
 20
206.250000
 42
0.026594
  0
VERTEX
  8
0
 10
224.602460
 20
207.349187
 42
0.011563
  0
VERTEX
  8
0
 10
224.799577
 20
208.829718
 42
0.011405
  0
VERTEX
  8
0
 10
224.937066
 20
210.416537
 42
0.014894
  0
VERTEX
  8
0
 10
224.986345
 20
211.872445
 42
-0.013379
  0
VERTEX
  8
0
 10
225.040376
 20
213.625870
 42
-0.121342
  0
VERTEX
  8
0
 10
225.264317
 20
214.352218
 42
-0.353374
  0
VERTEX
  8
0
 10
225.677387
 20
214.503409
 42
-0.091313
  0
VERTEX
  8
0
 10
226.342009
 20
214.131121
 42
0.102650
  0
VERTEX
  8
0
 10
227.457914
 20
213.538574
 42
0.269308
  0
VERTEX
  8
0
 10
228.305967
 20
213.748425
 42
0.161649
  0
VERTEX
  8
0
 10
228.844898
 20
214.779683
 42
0.040280
  0
VERTEX
  8
0
 10
229.000000
 20
216.701850
 42
-0.024834
  0
VERTEX
  8
0
 10
229.063893
 20
217.987453
 42
-0.220460
  0
VERTEX
  8
0
 10
229.344898
 20
218.463452
 42
-0.247741
  0
VERTEX
  8
0
 10
229.865143
 20
218.525034
 42
-0.030889
  0
VERTEX
  8
0
 10
230.934259
 20
218.035184
 42
0.027679
  0
VERTEX
  8
0
 10
232.880837
 20
217.128142
 42
0.302003
  0
VERTEX
  8
0
 10
233.685732
 20
217.296234
 42
0.215467
  0
VERTEX
  8
0
 10
234.017550
 20
218.194400
 42
0.015695
  0
VERTEX
  8
0
 10
233.742469
 20
220.883369
 42
0.000000
  0
VERTEX
  8
0
 10
233.221600
 20
224.766739
 42
0.000000
  0
VERTEX
  8
0
 10
238.959975
 20
225.415962
 42
-0.033646
  0
VERTEX
  8
0
 10
243.220825
 20
225.609498
 42
-0.055228
  0
VERTEX
  8
0
 10
246.795980
 20
225.134017
 42
-0.068135
  0
VERTEX
  8
0
 10
249.589972
 20
224.022517
 42
-0.106586
  0
VERTEX
  8
0
 10
251.515862
 20
222.309195
 42
0.031333
  0
VERTEX
  8
0
 10
252.138728
 20
221.560658
 42
0.159309
  0
VERTEX
  8
0
 10
252.608789
 20
221.304977
 42
0.233133
  0
VERTEX
  8
0
 10
253.030870
 20
221.424465
 42
0.070935
  0
VERTEX
  8
0
 10
253.468713
 20
221.949376
 42
0.154351
  0
VERTEX
  8
0
 10
253.634454
 20
222.605894
 42
0.080213
  0
VERTEX
  8
0
 10
253.448969
 20
223.438963
 42
0.062378
  0
VERTEX
  8
0
 10
252.935131
 20
224.371199
 42
0.039282
  0
VERTEX
  8
0
 10
252.126561
 20
225.317883
 42
0.068359
  0
VERTEX
  8
0
 10
250.731387
 20
226.376065
 42
0.063526
  0
VERTEX
  8
0
 10
249.068079
 20
227.051052
 42
0.042964
  0
VERTEX
  8
0
 10
246.771682
 20
227.451744
 42
0.013183
  0
VERTEX
  8
0
 10
243.255205
 20
227.664782
 42
0.012256
  0
VERTEX
  8
0
 10
240.426834
 20
227.692034
 42
0.011208
  0
VERTEX
  8
0
 10
237.514747
 20
227.583393
 42
0.011291
  0
VERTEX
  8
0
 10
234.919201
 20
227.369333
 42
0.035517
  0
SEQEND
  0
POLYLINE
  8
0
 66
1
 70
1
  0
VERTEX
  8
0
 10
163.628749
 20
221.750000
 42
0.036226
  0
VERTEX
  8
0
 10
161.345892
 20
218.250678
 42
0.093505
  0
VERTEX
  8
0
 10
160.403395
 20
215.398503
 42
0.129008
  0
VERTEX
  8
0
 10
160.705519
 20
212.972819
 42
0.105307
  0
VERTEX
  8
0
 10
162.166299
 20
210.792771
 42
-0.024939
  0
VERTEX
  8
0
 10
163.176242
 20
209.709380
 42
-0.015297
  0
VERTEX
  8
0
 10
164.260344
 20
208.340628
 42
-0.015324
  0
VERTEX
  8
0
 10
165.252727
 20
206.916593
 42
-0.026272
  0
VERTEX
  8
0
 10
165.978610
 20
205.664686
 42
0.077055
  0
VERTEX
  8
0
 10
167.524763
 20
203.529442
 42
0.056235
  0
VERTEX
  8
0
 10
169.809841
 20
201.689466
 42
0.056851
  0
VERTEX
  8
0
 10
172.413673
 20
200.425308
 42
0.084802
  0
VERTEX
  8
0
 10
174.903287
 20
200.000000
 42
0.068876
  0
VERTEX
  8
0
 10
177.163559
 20
200.312840
 42
0.048901
  0
VERTEX
  8
0
 10
179.549977
 20
201.246116
 42
0.050083
  0
VERTEX
  8
0
 10
181.446150
 20
202.463103
 42
0.228906
  0
VERTEX
  8
0
 10
182.000000
 20
203.609488
 42
0.209043
  0
VERTEX
  8
0
 10
181.774487
 20
204.125312
 42
0.206094
  0
VERTEX
  8
0
 10
181.240817
 20
204.314091
 42
0.070452
  0
VERTEX
  8
0
 10
180.208668
 20
204.097149
 42
0.011985
  0
VERTEX
  8
0
 10
178.331594
 20
203.365189
 42
-0.068395
  0
VERTEX
  8
0
 10
175.124530
 20
202.514785
 42
-0.128453
  0
VERTEX
  8
0
 10
172.484700
 20
202.867654
 42
-0.111390
  0
VERTEX
  8
0
 10
170.106675
 20
204.530600
 42
-0.043923
  0
VERTEX
  8
0
 10
167.672614
 20
207.726562
 42
0.012503
  0
VERTEX
  8
0
 10
166.637833
 20
209.278400
 42
0.012039
  0
VERTEX
  8
0
 10
165.514073
 20
210.796640
 42
0.012048
  0
VERTEX
  8
0
 10
164.460082
 20
212.085840
 42
0.042181
  0
VERTEX
  8
0
 10
163.695447
 20
212.837793
 42
-0.138082
  0
VERTEX
  8
0
 10
162.813003
 20
214.117628
 42
-0.144269
  0
VERTEX
  8
0
 10
162.747744
 20
215.646686
 42
-0.078526
  0
VERTEX
  8
0
 10
163.612110
 20
217.687477
 42
-0.019750
  0
VERTEX
  8
0
 10
165.647882
 20
220.683278
 42
0.009128
  0
VERTEX
  8
0
 10
167.277929
 20
222.975732
 42
0.071522
  0
VERTEX
  8
0
 10
167.853748
 20
224.146626
 42
0.286324
  0
VERTEX
  8
0
 10
167.707854
 20
224.733942
 42
0.194807
  0
VERTEX
  8
0
 10
167.050891
 20
225.000000
 42
0.170336
  0
VERTEX
  8
0
 10
166.545358
 20
224.822633
 42
0.021187
  0
VERTEX
  8
0
 10
165.654130
 20
224.045312
 42
0.023020
  0
VERTEX
  8
0
 10
164.645178
 20
222.994673
 42
0.017168
  0
SEQEND
  0
POLYLINE
  8
0
 66
1
 70
1
  0
VERTEX
  8
0
 10
167.200000
 20
218.800000
 42
0.082665
  0
VERTEX
  8
0
 10
166.739331
 20
218.155329
 42
0.037420
  0
VERTEX
  8
0
 10
166.352500
 20
217.188750
 42
0.035729
  0
VERTEX
  8
0
 10
166.088514
 20
216.083486
 42
0.040779
  0
VERTEX
  8
0
 10
166.000000
 20
215.000000
 42
0.110575
  0
VERTEX
  8
0
 10
166.669572
 20
212.009331
 42
0.194578
  0
VERTEX
  8
0
 10
168.502076
 20
210.316042
 42
0.174542
  0
VERTEX
  8
0
 10
171.167673
 20
210.273449
 42
0.088629
  0
VERTEX
  8
0
 10
174.139216
 20
211.921678
 42
0.000000
  0
VERTEX
  8
0
 10
176.500000
 20
213.843356
 42
0.000000
  0
VERTEX
  8
0
 10
173.562909
 20
216.921678
 42
0.024024
  0
VERTEX
  8
0
 10
171.406921
 20
218.974259
 42
0.106840
  0
VERTEX
  8
0
 10
169.881181
 20
219.807615
 42
0.175754
  0
VERTEX
  8
0
 10
168.563772
 20
219.727274
 42
0.094413
  0
SEQEND
  0
POLYLINE
  8
0
 66
1
 70
1
  0
VERTEX
  8
0
 10
190.571429
 20
211.428571
 42
0.022050
  0
VERTEX
  8
0
 10
189.434458
 20
210.186641
 42
0.145631
  0
VERTEX
  8
0
 10
189.104100
 20
209.422341
 42
0.135273
  0
VERTEX
  8
0
 10
189.232438
 20
208.574093
 42
0.018083
  0
VERTEX
  8
0
 10
190.035184
 20
206.934259
 42
0.151429
  0
VERTEX
  8
0
 10
191.417533
 20
205.569965
 42
0.116862
  0
VERTEX
  8
0
 10
193.483017
 20
205.052274
 42
0.118115
  0
VERTEX
  8
0
 10
195.543853
 20
205.517943
 42
0.156773
  0
VERTEX
  8
0
 10
196.917257
 20
206.845394
 42
0.066058
  0
VERTEX
  8
0
 10
197.284385
 20
207.822312
 42
0.089538
  0
VERTEX
  8
0
 10
197.330416
 20
208.761932
 42
0.079287
  0
VERTEX
  8
0
 10
197.040279
 20
209.741731
 42
0.041243
  0
VERTEX
  8
0
 10
196.395737
 20
210.845394
 42
0.068185
  0
VERTEX
  8
0
 10
195.031986
 20
212.317604
 42
0.147983
  0
VERTEX
  8
0
 10
193.622182
 20
212.903103
 42
0.150813
  0
VERTEX
  8
0
 10
192.142870
 20
212.603888
 42
0.071737
  0
SEQEND
  0
POLYLINE
  8
0
 66
1
 70
1
  0
VERTEX
  8
0
 10
202.512882
 20
172.058652
 42
0.075385
  0
VERTEX
  8
0
 10
202.347211
 20
169.541391
 42
0.087124
  0
VERTEX
  8
0
 10
202.961205
 20
167.220007
 42
0.106086
  0
VERTEX
  8
0
 10
204.190968
 20
165.581218
 42
0.176063
  0
VERTEX
  8
0
 10
205.785184
 20
164.968197
 42
-0.100732
  0
VERTEX
  8
0
 10
207.605554
 20
164.562404
 42
-0.073957
  0
VERTEX
  8
0
 10
209.353831
 20
163.447321
 42
-0.066659
  0
VERTEX
  8
0
 10
210.858391
 20
161.739705
 42
-0.056517
  0
VERTEX
  8
0
 10
211.961581
 20
159.601049
 42
0.000000
  0
VERTEX
  8
0
 10
213.001792
 20
156.865088
 42
0.000000
  0
VERTEX
  8
0
 10
216.137819
 20
159.098136
 42
0.028317
  0
VERTEX
  8
0
 10
217.373374
 20
160.087906
 42
0.028035
  0
VERTEX
  8
0
 10
218.493552
 20
161.214083
 42
0.029204
  0
VERTEX
  8
0
 10
219.357500
 20
162.308435
 42
0.088760
  0
VERTEX
  8
0
 10
219.753554
 20
163.165592
 42
-0.064671
  0
VERTEX
  8
0
 10
220.037680
 20
163.866875
 42
-0.067482
  0
VERTEX
  8
0
 10
220.488378
 20
164.461143
 42
-0.074853
  0
VERTEX
  8
0
 10
221.030210
 20
164.862669
 42
-0.122691
  0
VERTEX
  8
0
 10
221.581448
 20
165.000000
 42
0.274149
  0
VERTEX
  8
0
 10
223.536748
 20
166.159210
 42
0.085250
  0
VERTEX
  8
0
 10
224.689952
 20
169.521504
 42
0.085330
  0
VERTEX
  8
0
 10
224.654684
 20
173.073718
 42
0.274892
  0
VERTEX
  8
0
 10
223.163747
 20
174.784966
 42
0.154142
  0
VERTEX
  8
0
 10
222.586965
 20
174.791704
 42
0.224976
  0
VERTEX
  8
0
 10
222.216745
 20
174.455841
 42
0.103479
  0
VERTEX
  8
0
 10
222.072339
 20
173.685089
 42
0.023989
  0
VERTEX
  8
0
 10
222.163747
 20
172.362084
 42
-0.024078
  0
VERTEX
  8
0
 10
222.264400
 20
170.901457
 42
-0.131719
  0
VERTEX
  8
0
 10
222.077000
 20
170.139881
 42
-0.227209
  0
VERTEX
  8
0
 10
221.597549
 20
169.797046
 42
-0.085277
  0
VERTEX
  8
0
 10
220.750000
 20
169.793837
 42
0.080297
  0
VERTEX
  8
0
 10
219.990746
 20
169.798472
 42
0.148886
  0
VERTEX
  8
0
 10
219.440699
 20
169.532943
 42
0.139835
  0
VERTEX
  8
0
 10
219.110211
 20
168.990968
 42
0.067532
  0
VERTEX
  8
0
 10
219.000000
 20
168.178695
 42
-0.076846
  0
VERTEX
  8
0
 10
218.858725
 20
167.264908
 42
-0.029799
  0
VERTEX
  8
0
 10
218.398787
 20
166.066161
 42
-0.028643
  0
VERTEX
  8
0
 10
217.736639
 20
164.804206
 42
-0.031519
  0
VERTEX
  8
0
 10
216.953317
 20
163.667781
 42
0.000000
  0
VERTEX
  8
0
 10
214.906633
 20
161.065845
 42
0.000000
  0
VERTEX
  8
0
 10
212.443922
 20
163.782922
 42
-0.005823
  0
VERTEX
  8
0
 10
211.393295
 20
164.969550
 42
-0.004468
  0
VERTEX
  8
0
 10
210.272349
 20
166.289358
 42
-0.004519
  0
VERTEX
  8
0
 10
209.245715
 20
167.543113
 42
-0.010685
  0
VERTEX
  8
0
 10
208.509609
 20
168.500000
 42
0.020056
  0
VERTEX
  8
0
 10
207.652136
 20
169.572463
 42
0.165722
  0
VERTEX
  8
0
 10
207.120583
 20
169.882322
 42
0.252047
  0
VERTEX
  8
0
 10
206.636550
 20
169.735508
 42
0.048235
  0
VERTEX
  8
0
 10
206.034316
 20
169.000000
 42
-0.101737
  0
VERTEX
  8
0
 10
205.566314
 20
168.538580
 42
-0.458948
  0
VERTEX
  8
0
 10
205.243932
 20
168.633030
 42
-0.095482
  0
VERTEX
  8
0
 10
205.060226
 20
169.400764
 42
-0.010100
  0
VERTEX
  8
0
 10
205.015313
 20
171.250000
 42
0.031347
  0
VERTEX
  8
0
 10
204.830882
 20
174.008643
 42
0.289941
  0
VERTEX
  8
0
 10
204.099916
 20
174.887413
 42
0.397663
  0
VERTEX
  8
0
 10
203.242570
 20
174.479147
 42
0.038316
  0
SEQEND
  0
ENDSEC
  0
EOF
